#!OML:ASF E:/inclinewalkrobotboard/Project1/Captureday1/Session1/subject1.ASF
:FULLY-SPECIFIED
:DEGREES
226
root 0 0 0 1.497612202420038 -8.84385846014708 1.0586680603405147
lowerback 1.3800061149829452 -1.3561858928522428 -2.993320109424534
upperback -0.959904604051519 -1.6931831334502743 2.2780328029935797
thorax -1.5278306436032465 -0.8231306707602943 4.007163614161234
lowerneck -27.661236554685075 -1.9874535214161888 -7.195223804413419
upperneck 10.390381846529827 -0.7943907319172051 4.740938974963474
head 7.612132058486527 -0.14815071674731828 2.6424808812495426
rclavicle -4.135183903629231E-15 3.000964834914288E-16
rhumerus -32.39699539628531 -4.521074121632879 -80.60229325904457
rradius 30.348794461375224
rwrist 18.905041989252815
rhand -17.662656230024986 9.43636413943148
rfingers 7.125019999999959
rthumb 8.596691835247174 -20.353869299363737
lclavicle -1.9587682777886324E-15 -4.496220016174567E-16
lhumerus -9.288942215223752 9.243877801126835 88.81573109258247
lradius 60.74506456196228
lwrist -5.508375939767653
lhand -33.897517857224 17.236673157856693
lfingers 7.125020000000011
lthumb -7.07649030732578 46.85960595719736
rfemur 4.593293310355627 9.097750362796644 38.38167172363777
rtibia 20.656810682454854
rfoot -20.76869596260843 -7.0923791519742
rtoes 7.199709443345006
lfemur -22.40662688592375 2.8081782008584066 -12.810918640966369
ltibia 57.284548550082796
lfoot -2.0642699797486124 -5.3970668771455
ltoes -7.606615801806289
227
root 0 0 0 1.4155785466377897 -8.751814203018288 0.9690391202929426
lowerback 1.4322954627456004 -1.2900013876541312 -2.9652609993896855
upperback -1.0406194316659927 -1.5968258421105022 2.2487380055885073
thorax -1.6468680544610717 -0.7755692478848419 3.962981131812189
lowerneck -26.81630301425087 -1.909965671182956 -7.195951077429471
upperneck 11.388411366147977 -0.736972991064581 4.63900565880571
head 7.849420737141906 -0.16794453818515176 2.6316702929962394
rclavicle -4.240933939963221E-15 -3.014338455342027E-16
rhumerus -31.803480866515645 -2.937458418035649 -80.81897732937298
rradius 30.638425528184307
rwrist 18.190517739276395
rhand -18.082887344634518 9.766728017879375
rfingers 7.125019999999954
rthumb 8.192394825939383 -20.03954519591335
lclavicle -1.5669383763939905E-15 -4.873501314282815E-16
lhumerus -10.105345036078585 8.76820142789252 89.25284985633722
lradius 60.50701044963751
lwrist -5.223658803710721
lhand -33.70406361514399 17.347679075467337
lfingers 7.125020000000009
lthumb -6.892100341335139 46.98110849349176
rfemur 6.505501420694207 8.890135896706514 38.43287002783883
rtibia 20.65652871515035
rfoot -21.93226007838072 -7.223600967730281
rtoes 3.8832754542348837
lfemur -26.048492505187426 1.5519166661113193 -12.055043931280576
ltibia 49.639479018721346
lfoot -3.2146163117164486 -2.6093391329709044
ltoes -5.267710584639489
228
root 0 0 0 1.3953432157869088 -8.730827046494495 0.9450832521430619
lowerback 1.4502773785098184 -1.2750018768022005 -2.953619276839155
upperback -1.0539438812678674 -1.5746657015751768 2.2400758793896176
thorax -1.6724407881666257 -0.7653226070366261 3.9477362521298263
lowerneck -26.617963906653422 -1.89442284759679 -7.192807534445633
upperneck 11.646915256971692 -0.7266411770549356 4.606050813690408
head 7.9142245124910655 -0.17511614605177017 2.6252047833508634
rclavicle -5.120134351434253E-15 -1.0748422503940778E-15
rhumerus -31.536150709346675 -2.0457795833288808 -80.902414508167
rradius 30.778794854862138
rwrist 17.915989558187647
rhand -18.293913885328173 9.868767573845808
rfingers 7.125019999999954
rthumb 7.989172113986998 -19.95113627055617
lclavicle -1.5679791993683362E-15 -5.715745073705987E-16
lhumerus -10.569975479787042 8.640859783900073 89.49950102292854
lradius 60.24522886769303
lwrist -5.06972304636502
lhand -33.579974833790665 17.38319836395536
lfingers 7.125020000000008
lthumb -6.772580277765172 47.02192378250183
rfemur 7.844705044365172 8.450588360297454 38.24514521636357
rtibia 22.59776645990773
rfoot -22.26116393537267 -6.882071333225159
rtoes 1.576837268763168
lfemur -29.410283539924233 -0.25994020808609064 -11.217851106912324
ltibia 40.54240983598712
lfoot -3.819590414048636 0.046001787308173725
ltoes -2.595155705263344
229
root 0 0 0 1.3863740104028965 -8.722197458390621 0.9315713374346322
lowerback 1.4575386673159123 -1.267404380808884 -2.9462973667627255
upperback -1.0586106725662452 -1.5633646840304054 2.23372746657062
thorax -1.6818582242211608 -0.7605373418386334 3.9375160205902136
lowerneck -26.50902521902593 -1.8891576295270682 -7.1944778123511135
upperneck 11.810180632121945 -0.7253126547124359 4.587973469398476
head 7.958361969316281 -0.18163374701376261 2.621844228605168
rclavicle -5.684468220365284E-15 -1.5444589205466885E-15
rhumerus -31.404946170541415 -1.5688414619017017 -80.94027212118002
rradius 30.850966411559853
rwrist 17.798606385857603
rhand -18.401964886824604 9.909328228718946
rfingers 7.125019999999954
rthumb 7.885179715623351 -19.919997818031735
lclavicle -1.7019868282869288E-15 -6.848671637634463E-16
lhumerus -10.837116283378716 8.701269539678886 89.65526837121226
lradius 59.99623438132294
lwrist -5.0080707885476965
lhand -33.51151697806565 17.364608113816473
lfingers 7.125020000000008
lthumb -6.705527817247423 47.00546284030912
rfemur 9.875060020200591 8.055534317903135 37.447692471061096
rtibia 25.07545249400139
rfoot -21.224448332493544 -5.984951828871035
rtoes -1.313167464779876
lfemur -31.565521733586127 -2.6423693234912533 -9.959023891629576
ltibia 30.524984898222407
lfoot -4.247904363563562 2.483229828066519
ltoes -1.5154958420931628
230
root 0 0 0 1.3832554816917504 -8.72531882358185 0.9236077510491584
lowerback 1.449508449825353 -1.263283400512939 -2.94426474343721
upperback -1.0647691086726319 -1.557488436240368 2.2280755684384013
thorax -1.6836217778509082 -0.7581407320153333 3.931238818699053
lowerneck -26.428705109712396 -1.8847971559723153 -7.203351143147996
upperneck 11.964171058607558 -0.7205285405501556 4.573895552005077
head 8.004401465647012 -0.1868329596588984 2.6213396269030884
rclavicle -6.323967691794157E-15 -1.7392319690909432E-15
rhumerus -31.357010242936166 -1.3790314112924502 -80.947635392375
rradius 30.87545630040492
rwrist 17.75890278201611
rhand -18.444092399693826 9.924706559806534
rfingers 7.125019999999955
rthumb 7.844564605706181 -19.908545658045796
lclavicle -2.0760983419923694E-15 -7.709027475493011E-16
lhumerus -10.800493039061951 8.910033315559104 89.6419671497025
lradius 59.86061497923313
lwrist -5.052092890170519
lhand -33.51914465256254 17.31012231414856
lfingers 7.125020000000008
lthumb -6.7107979643398314 46.94957529090064
rfemur 12.574374731333473 7.52445886508801 35.26870872969974
rtibia 29.898920984481048
rfoot -17.275173350860662 -4.25499482721821
rtoes -4.56921135945859
lfemur -31.540399793679246 -4.0872178528329055 -9.393002202884514
ltibia 24.948074749585317
lfoot -4.604991190313962 3.4918010472513896
ltoes -1.8224740174709604
